<svg width="50" height="18" viewBox="0 0 50 18" fill="none" xmlns="http://www.w3.org/2000/svg">
<rect width="50" height="18" fill="#F0F0F0"/>
<path d="M13.6094 3.53125V13.9492H12.7188V3.53125H13.6094ZM11.5352 3.75391V13.4219H10.6562V10H8.99219C8.62891 11.043 7.9375 11.6523 7.04688 11.6523C5.6875 11.6523 4.80859 10.2461 4.80859 8.03125C4.80859 5.81641 5.6875 4.41016 7.04688 4.41016C7.9375 4.41016 8.62891 5.01953 8.99219 6.0625H10.6562V3.75391H11.5352ZM7.04688 5.27734C6.19141 5.27734 5.66406 6.33203 5.66406 8.03125C5.66406 9.71875 6.19141 10.7852 7.04688 10.7734C7.89062 10.7852 8.44141 9.71875 8.44141 8.03125C8.44141 6.33203 7.89062 5.27734 7.04688 5.27734ZM9.19141 6.82422C9.26172 7.19336 9.29688 7.59766 9.29688 8.03125C9.29688 8.45898 9.26172 8.86328 9.20312 9.22656H10.6562V6.82422H9.19141ZM24.7422 5.14844V5.89844H23.1953V7.36328H24.7422V8.14844H23.1953V9.73047H22.2812V3.53125H23.1953V5.14844H24.7422ZM23.1953 10.2109V13.9492H22.2812V10.9727H16.375V10.2109H23.1953ZM17.9805 4.16406C19.5625 4.15234 20.7109 5.17188 20.7227 6.61328C20.7109 8.07812 19.5625 9.08594 17.9805 9.08594C16.3984 9.08594 15.2383 8.07812 15.25 6.61328C15.2383 5.17188 16.3984 4.15234 17.9805 4.16406ZM17.9805 4.94922C16.9258 4.94922 16.1406 5.62891 16.1523 6.61328C16.1406 7.60938 16.9258 8.30078 17.9805 8.28906C19.0469 8.30078 19.8203 7.60938 19.8203 6.61328C19.8203 5.62891 19.0469 4.94922 17.9805 4.94922ZM31.375 4.52734V5.27734H30.3086V8.72266C30.8418 8.6875 31.3691 8.64062 31.8672 8.58203L31.9375 9.27344C29.8281 9.60156 27.3672 9.64844 25.5625 9.64844L25.457 8.88672L26.8047 8.86328V5.27734H25.75V4.52734H31.375ZM33.5664 3.54297V6.70703H35.1367V7.49219H33.5664V11.207H32.6523V3.54297H33.5664ZM34.0469 12.9531V13.7266H27.0508V10.4805H27.9531V12.9531H34.0469ZM27.707 8.85156C28.2637 8.83398 28.8379 8.81641 29.4062 8.78125V5.27734H27.707V8.85156ZM44.7227 3.53125V13.9492H43.832V8.42969H42.3789V13.4219H41.5V3.75391H42.3789V7.66797H43.832V3.53125H44.7227ZM40.1641 4.75V11.1484H36.1797V4.75H40.1641ZM37.0469 5.48828V10.4102H39.2969V5.48828H37.0469Z" fill="black"/>
</svg>
