<svg width="50" height="19" viewBox="0 0 50 19" fill="none" xmlns="http://www.w3.org/2000/svg">
<rect width="50" height="18" transform="translate(0 0.5)" fill="#F0F0F0"/>
<path d="M9.42578 4.71094C11.6406 4.72266 13.2344 5.80078 13.2344 7.44141C13.2344 8.99414 11.8516 10.0254 9.87109 10.1484V12.3398H14.2188V13.1133H4.67969V12.3398H8.96875V10.1484C6.99414 10.0195 5.61719 8.98828 5.61719 7.44141C5.61719 5.80078 7.21094 4.72266 9.42578 4.71094ZM9.42578 5.47266C7.73828 5.47266 6.50781 6.26953 6.50781 7.44141C6.50781 8.64844 7.73828 9.42188 9.42578 9.43359C11.1133 9.42188 12.3438 8.64844 12.3438 7.44141C12.3438 6.26953 11.1133 5.47266 9.42578 5.47266ZM23.4531 6.53906V7.30078H16.3398V4.20703H17.2422V6.53906H23.4531ZM24.5781 8.33203V9.08203H15.0391V8.33203H24.5781ZM23.3477 10.0195V12.457H17.1836V13.5703H23.7227V14.3086H16.2578V11.7539H22.4453V10.7461H16.2344V10.0195H23.3477ZM33.8359 8.91797V9.66797H30.6133V12.3633H34.9609V13.1367H25.4219V12.3633H29.7109V9.66797H26.6406V4.88672H33.7305V5.63672H27.5664V8.91797H33.8359ZM39.3438 6.30469C39.3438 7.59375 40.3984 8.78906 41.9336 9.24609L41.4883 9.97266C40.293 9.59766 39.3613 8.79492 38.9102 7.76953C38.4531 8.90039 37.4922 9.76172 36.2734 10.1719L35.8047 9.44531C37.3633 8.96484 38.4414 7.71094 38.4414 6.30469V6.07031H36.0859V5.33203H38.4414V3.99609H39.3672V5.33203H41.6992V6.07031H39.3438V6.30469ZM43.9375 4.03125V6.82031H45.5078V7.60547H43.9375V10.3945H43.0234V4.03125H43.9375ZM43.9375 10.9336V14.4727H43.0234V11.6953H37.1172V10.9336H43.9375Z" fill="black"/>
</svg>
