<svg width="486" height="486" viewBox="0 0 486 486" fill="none" xmlns="http://www.w3.org/2000/svg">
<rect width="486" height="486" fill="#F8F8F8"/>
<path d="M298.876 193.551L188.877 193.102C186.116 193.091 183.868 195.32 183.857 198.081L183.489 288.081C183.478 290.842 185.707 293.09 188.469 293.101L298.468 293.55C301.229 293.562 303.477 291.332 303.488 288.571L303.856 198.572C303.867 195.81 301.638 193.563 298.876 193.551Z" stroke="#999999" stroke-width="4" stroke-linecap="round" stroke-linejoin="round"/>
<path d="M183.574 267.297L215.137 236.669C215.604 236.209 216.16 235.844 216.773 235.596C217.385 235.348 218.042 235.221 218.705 235.224C219.368 235.227 220.024 235.359 220.635 235.612C221.245 235.865 221.799 236.234 222.262 236.698L250.025 264.083C250.489 264.547 251.042 264.917 251.652 265.17C252.263 265.423 252.919 265.555 253.582 265.557C254.245 265.56 254.902 265.434 255.514 265.186C256.127 264.938 256.683 264.573 257.15 264.112L270.077 251.569C270.544 251.109 271.1 250.744 271.712 250.496C272.325 250.248 272.982 250.121 273.645 250.124C274.308 250.127 274.964 250.258 275.574 250.511C276.185 250.765 276.738 251.134 277.201 251.598L303.533 277.571" stroke="#999999" stroke-width="4" stroke-linecap="round" stroke-linejoin="round"/>
<path d="M261.721 231.4C266.14 231.418 269.736 227.851 269.754 223.433C269.772 219.014 266.205 215.418 261.787 215.4C257.368 215.382 253.772 218.949 253.754 223.367C253.736 227.785 257.303 231.382 261.721 231.4Z" fill="#999999"/>
</svg>
