<svg width="17" height="16" viewBox="0 0 17 16" fill="none" xmlns="http://www.w3.org/2000/svg">
<path d="M4.01269 6.49983C4.01186 5.90706 4.12831 5.31999 4.35533 4.77243C4.58236 4.22486 4.91547 3.72762 5.33549 3.30935C5.75551 2.89107 6.25413 2.56003 6.80263 2.33528C7.35114 2.11053 7.93869 1.99653 8.53144 1.99983C11.0064 2.01858 12.9877 4.07483 12.9877 6.55608V6.99983C12.9877 9.23733 13.4564 10.5373 13.8689 11.2498C13.9128 11.3257 13.9359 11.4118 13.9359 11.4994C13.936 11.587 13.9131 11.6731 13.8694 11.7491C13.8257 11.825 13.7628 11.8882 13.6871 11.9322C13.6113 11.9762 13.5253 11.9995 13.4377 11.9998H3.56269C3.47507 11.9995 3.38907 11.9762 3.31331 11.9322C3.23754 11.8882 3.17468 11.825 3.131 11.7491C3.08732 11.6731 3.06438 11.587 3.06445 11.4994C3.06453 11.4118 3.08763 11.3257 3.13144 11.2498C3.54394 10.5373 4.01269 9.23733 4.01269 6.99983V6.49983Z" stroke="black" stroke-width="1.5" stroke-linecap="round" stroke-linejoin="round"/>
<path d="M6.5 12V12.5C6.5 13.0304 6.71071 13.5391 7.08579 13.9142C7.46086 14.2893 7.96957 14.5 8.5 14.5C9.03043 14.5 9.53914 14.2893 9.91421 13.9142C10.2893 13.5391 10.5 13.0304 10.5 12.5V12" stroke="black" stroke-width="1.5" stroke-linecap="round" stroke-linejoin="round"/>
</svg>
