<svg width="51" height="50" viewBox="0 0 51 50" fill="none" xmlns="http://www.w3.org/2000/svg">
<g clip-path="url(#clip0_7931_31083)">
<path d="M50.5 25C50.5 11.1929 39.3071 0 25.5 0C11.6929 0 0.5 11.1929 0.5 25C0.5 38.8071 11.6929 50 25.5 50C39.3071 50 50.5 38.8071 50.5 25Z" fill="#F2F2F2"/>
<path d="M18.4824 35.8178H34.4884M33.6324 39.7828H19.3384C19.1105 39.7815 18.8924 39.6898 18.7321 39.5278C18.5718 39.3658 18.4824 39.1468 18.4834 38.9188V12.0788C18.4824 11.8509 18.5718 11.6319 18.7321 11.4699C18.8924 11.3079 19.1105 11.2162 19.3384 11.2148H33.6334C33.7464 11.2154 33.8581 11.2381 33.9622 11.2818C34.0664 11.3255 34.1609 11.3893 34.2404 11.4696C34.3199 11.5498 34.3828 11.6449 34.4255 11.7494C34.4682 11.854 34.4899 11.9659 34.4894 12.0788V38.9188C34.4899 39.0318 34.4682 39.1437 34.4255 39.2483C34.3828 39.3528 34.3199 39.4479 34.2404 39.5281C34.1609 39.6084 34.0664 39.6721 33.9622 39.7159C33.8581 39.7596 33.7454 39.7823 33.6324 39.7828Z" stroke="black" stroke-width="0.5" stroke-linecap="round" stroke-linejoin="round"/>
<path fill-rule="evenodd" clip-rule="evenodd" d="M33.6314 39.7828H19.3374C19.1095 39.7815 18.8915 39.6898 18.7311 39.5278C18.5708 39.3658 18.4814 39.1468 18.4824 38.9188V12.0788C18.4814 11.8509 18.5708 11.6319 18.7311 11.4699C18.8915 11.3079 19.1095 11.2162 19.3374 11.2148H33.6324C33.7454 11.2154 33.8571 11.2381 33.9612 11.2818C34.0654 11.3255 34.1599 11.3893 34.2394 11.4696C34.3189 11.5498 34.3818 11.6449 34.4245 11.7494C34.4672 11.854 34.489 11.9659 34.4884 12.0788V38.9188C34.489 39.0318 34.4672 39.1437 34.4245 39.2483C34.3818 39.3528 34.3189 39.4479 34.2394 39.5281C34.1599 39.6084 34.0654 39.6721 33.9612 39.7159C33.8571 39.7596 33.7444 39.7823 33.6314 39.7828Z" fill="#505050"/>
<path fill-rule="evenodd" clip-rule="evenodd" d="M33.6314 39.7828H19.3374C19.1095 39.7815 18.8915 39.6898 18.7311 39.5278C18.5708 39.3658 18.4814 39.1468 18.4824 38.9188V12.0788C18.4814 11.8509 18.5708 11.6319 18.7311 11.4699C18.8915 11.3079 19.1095 11.2162 19.3374 11.2148H33.6324C33.7454 11.2154 33.8571 11.2381 33.9612 11.2818C34.0654 11.3255 34.1599 11.3893 34.2394 11.4696C34.3189 11.5498 34.3818 11.6449 34.4245 11.7494C34.4672 11.854 34.489 11.9659 34.4884 12.0788V38.9188C34.489 39.0318 34.4672 39.1437 34.4245 39.2483C34.3818 39.3528 34.3189 39.4479 34.2394 39.5281C34.1599 39.6084 34.0654 39.6721 33.9612 39.7159C33.8571 39.7596 33.7444 39.7823 33.6314 39.7828Z" stroke="black" stroke-width="0.5" stroke-linecap="round" stroke-linejoin="round"/>
<mask id="mask0_7931_31083" style="mask-type:luminance" maskUnits="userSpaceOnUse" x="18" y="11" width="17" height="29">
<path d="M18.2676 40H34.7006V11H18.2676V40Z" fill="white"/>
</mask>
<g mask="url(#mask0_7931_31083)">
<path fill-rule="evenodd" clip-rule="evenodd" d="M18.4824 35.8189H34.4884V15.1289H18.4824V35.8189Z" fill="white"/>
</g>
<mask id="mask1_7931_31083" style="mask-type:luminance" maskUnits="userSpaceOnUse" x="18" y="11" width="17" height="29">
<path d="M18.2676 40H34.7006V11H18.2676V40Z" fill="white"/>
</mask>
<g mask="url(#mask1_7931_31083)">
<path fill-rule="evenodd" clip-rule="evenodd" d="M18.4824 35.8189H34.4884V15.1289H18.4824V35.8189Z" stroke="black" stroke-width="0.967" stroke-linecap="round"/>
</g>
<mask id="mask2_7931_31083" style="mask-type:luminance" maskUnits="userSpaceOnUse" x="18" y="11" width="17" height="29">
<path d="M18.2676 40H34.7006V11H18.2676V40Z" fill="white"/>
</mask>
<g mask="url(#mask2_7931_31083)">
<path d="M34.4884 15.1289H18.4824" stroke="black" stroke-width="0.5" stroke-linecap="round" stroke-linejoin="round"/>
</g>
<mask id="mask3_7931_31083" style="mask-type:luminance" maskUnits="userSpaceOnUse" x="18" y="11" width="17" height="29">
<path d="M18.2676 40H34.7006V11H18.2676V40Z" fill="white"/>
</mask>
<g mask="url(#mask3_7931_31083)">
<path fill-rule="evenodd" clip-rule="evenodd" d="M28.1745 13.5523H24.7935C24.6987 13.5513 24.6082 13.5129 24.5415 13.4455C24.4749 13.3781 24.4375 13.2871 24.4375 13.1923V13.0123C24.4375 12.8153 24.5975 12.6523 24.7935 12.6523H28.1745C28.2695 12.6531 28.3603 12.6914 28.4271 12.7588C28.494 12.8263 28.5315 12.9174 28.5315 13.0123V13.1923C28.5315 13.2873 28.494 13.3784 28.4271 13.4458C28.3603 13.5133 28.2695 13.5516 28.1745 13.5523Z" fill="white"/>
</g>
<mask id="mask4_7931_31083" style="mask-type:luminance" maskUnits="userSpaceOnUse" x="18" y="11" width="17" height="29">
<path d="M18.2676 40H34.7006V11H18.2676V40Z" fill="white"/>
</mask>
<g mask="url(#mask4_7931_31083)">
<path fill-rule="evenodd" clip-rule="evenodd" d="M28.1745 13.5523H24.7935C24.6987 13.5513 24.6082 13.5129 24.5415 13.4455C24.4749 13.3781 24.4375 13.2871 24.4375 13.1923V13.0123C24.4375 12.8153 24.5975 12.6523 24.7935 12.6523H28.1745C28.2695 12.6531 28.3603 12.6914 28.4271 12.7588C28.494 12.8263 28.5315 12.9174 28.5315 13.0123V13.1923C28.5315 13.2873 28.494 13.3784 28.4271 13.4458C28.3603 13.5133 28.2695 13.5516 28.1745 13.5523Z" stroke="black" stroke-width="0.5" stroke-linecap="round"/>
</g>
</g>
<defs>
<clipPath id="clip0_7931_31083">
<rect width="50" height="50" fill="white" transform="translate(0.5)"/>
</clipPath>
</defs>
</svg>
