<svg width="65" height="64" viewBox="0 0 65 64" fill="none" xmlns="http://www.w3.org/2000/svg">
<circle cx="32.5" cy="32" r="30.5" fill="white" stroke="#DB3939" stroke-width="3"/>
<path d="M26.3105 21.7891V43H21.8867V25.9785H21.7695L16.9062 29.0254V25.1289L22.1504 21.7891H26.3105ZM38.9668 21.4961C43.3613 21.5254 47.5215 24.1328 47.5215 31.8379C47.5508 39.0449 44.123 43.293 38.791 43.293C34.5137 43.293 31.6133 40.627 31.1738 37.0234H35.5098C35.8613 38.5762 37.0918 39.5137 38.791 39.5137C41.6914 39.5137 43.2148 36.9355 43.2148 32.6875H43.0391C42.043 34.5625 39.9629 35.6758 37.5898 35.6758C33.7812 35.6758 30.9688 32.8047 30.9395 28.8496C30.9395 24.5723 34.1621 21.4668 38.9668 21.4961ZM38.9961 24.9531C36.8281 24.9531 35.2168 26.623 35.2461 28.7324C35.2461 30.8125 36.7988 32.4531 38.9668 32.4531C41.1055 32.4531 42.7754 30.7539 42.7754 28.7031C42.7461 26.6816 41.1641 24.9531 38.9961 24.9531Z" fill="black"/>
</svg>
