<svg width="12" height="12" viewBox="0 0 12 12" fill="none" xmlns="http://www.w3.org/2000/svg">
<path d="M6.21152 9.33474L8.63442 10.9341C8.9469 11.139 9.33148 10.8341 9.24014 10.4593L8.53827 7.59045C8.51929 7.51093 8.52231 7.42745 8.54698 7.34964C8.57164 7.27183 8.61695 7.20284 8.67768 7.15063L10.8506 5.2664C11.1342 5.0215 10.99 4.5267 10.6198 4.50171L7.78352 4.31179C7.70613 4.30711 7.63173 4.27909 7.56941 4.23116C7.50708 4.18323 7.45954 4.11746 7.43259 4.0419L6.37497 1.27303C6.34698 1.19301 6.29598 1.12389 6.22889 1.07504C6.16181 1.0262 6.0819 1 6 1C5.9181 1 5.83819 1.0262 5.77111 1.07504C5.70402 1.12389 5.65302 1.19301 5.62503 1.27303L4.56741 4.0419C4.54046 4.11746 4.49292 4.18323 4.43059 4.23116C4.36827 4.27909 4.29387 4.30711 4.21648 4.31179L1.38015 4.50171C1.00999 4.5267 0.865768 5.0215 1.1494 5.2664L3.32232 7.15063C3.38305 7.20284 3.42836 7.27183 3.45302 7.34964C3.47769 7.42745 3.48071 7.51093 3.46173 7.59045L2.81274 10.2494C2.70217 10.6992 3.16367 11.064 3.53384 10.8191L5.78848 9.33474C5.8517 9.29294 5.92508 9.27074 6 9.27074C6.07492 9.27074 6.1483 9.29294 6.21152 9.33474Z" fill="black"/>
</svg>
