<svg xmlns="http://www.w3.org/2000/svg" width="16" height="16" viewBox="0 0 16 16" fill="none">
<path d="M13.5 5H2.5C2.22386 5 2 5.22386 2 5.5V7.5C2 7.77614 2.22386 8 2.5 8H13.5C13.7761 8 14 7.77614 14 7.5V5.5C14 5.22386 13.7761 5 13.5 5Z" stroke="#767676" stroke-width="1.5" stroke-linecap="round" stroke-linejoin="round"/>
<path d="M13 8V13.4C13 13.5591 12.9473 13.7117 12.8536 13.8243C12.7598 13.9368 12.6326 14 12.5 14H3.5C3.36739 14 3.24021 13.9368 3.14645 13.8243C3.05268 13.7117 3 13.5591 3 13.4V8" stroke="#767676" stroke-width="1.5" stroke-linecap="round" stroke-linejoin="round"/>
<path d="M8 8V14" stroke="#767676" stroke-width="1.5" stroke-linecap="round" stroke-linejoin="round"/>
<path d="M10.8313 4.29362C10.1188 4.99987 8 4.99987 8 4.99987C8 4.99987 8 2.88112 8.70625 2.16862C8.98804 1.88683 9.37024 1.72852 9.76875 1.72852C10.1673 1.72852 10.5495 1.88683 10.8313 2.16862C11.113 2.45041 11.2714 2.8326 11.2714 3.23112C11.2714 3.62963 11.113 4.01182 10.8313 4.29362V4.29362Z" stroke="#767676" stroke-width="1.5" stroke-linecap="round" stroke-linejoin="round"/>
<path d="M5.16874 4.29362C5.88124 4.99987 7.99999 4.99987 7.99999 4.99987C7.99999 4.99987 7.99999 2.88112 7.29374 2.16862C7.01195 1.88683 6.62975 1.72852 6.23124 1.72852C5.83272 1.72852 5.45053 1.88683 5.16874 2.16862C4.88695 2.45041 4.72864 2.8326 4.72864 3.23112C4.72864 3.62963 4.88695 4.01182 5.16874 4.29362V4.29362Z" stroke="#767676" stroke-width="1.5" stroke-linecap="round" stroke-linejoin="round"/>
</svg>