<svg width="20" height="20" viewBox="0 0 20 20" fill="none" xmlns="http://www.w3.org/2000/svg">
<path d="M7.42021 11.0435C7.57733 10.7293 7.66599 10.3747 7.66599 9.99983C7.66599 9.62496 7.57733 9.27032 7.42021 8.95612M7.42021 11.0435C7.18509 11.5136 6.79815 11.8905 6.32206 12.1132C5.84597 12.3359 5.30864 12.3913 4.7971 12.2706C4.28556 12.1498 3.82979 11.8598 3.50363 11.4477C3.17746 11.0356 3 10.5254 3 9.99983C3 9.47426 3.17746 8.96408 3.50363 8.55195C3.82979 8.13982 4.28556 7.84988 4.7971 7.72909C5.30864 7.60831 5.84597 7.66376 6.32206 7.88646C6.79815 8.10916 7.18509 8.48606 7.42021 8.95612M7.42021 11.0435L12.5785 13.6225M7.42021 8.95612L12.5785 6.37717M12.5785 13.6225C12.3016 14.1761 12.2561 14.817 12.4518 15.4042C12.6476 15.9914 13.0686 16.4768 13.6222 16.7536C14.1759 17.0304 14.8169 17.076 15.4041 16.8802C15.9913 16.6845 16.4768 16.2635 16.7536 15.7099C17.0304 15.1563 17.076 14.5154 16.8802 13.9282C16.6845 13.341 16.2635 12.8556 15.7098 12.5788C15.4357 12.4417 15.1372 12.36 14.8315 12.3383C14.5258 12.3165 14.2187 12.3552 13.928 12.4521C13.3407 12.6479 12.8553 13.0689 12.5785 13.6225ZM12.5785 6.37717C12.7155 6.65124 12.9053 6.89564 13.1368 7.0964C13.3683 7.29716 13.6371 7.45035 13.9278 7.54723C14.2186 7.64411 14.5256 7.68278 14.8312 7.66104C15.1369 7.63929 15.4353 7.55756 15.7094 7.42049C15.9835 7.28343 16.2279 7.09373 16.4287 6.86222C16.6295 6.6307 16.7827 6.36192 16.8796 6.0712C16.9765 5.78048 17.0151 5.47353 16.9934 5.16787C16.9716 4.86221 16.8899 4.56382 16.7528 4.28975C16.476 3.73624 15.9906 3.31535 15.4034 3.11969C14.8163 2.92403 14.1754 2.96962 13.6219 3.24643C13.0683 3.52324 12.6474 4.00859 12.4517 4.59572C12.256 5.18285 12.3016 5.82366 12.5785 6.37717Z" stroke="black" stroke-width="1.5" stroke-linecap="round" stroke-linejoin="round"/>
</svg>
