<svg width="20" height="20" viewBox="0 0 20 20" fill="none" xmlns="http://www.w3.org/2000/svg">
<path d="M10.4452 16.631L16.7733 10.3029C18.328 8.7404 18.5545 6.18572 17.0858 4.5529C16.7175 4.14143 16.2691 3.80937 15.7681 3.57703C15.2671 3.34469 14.7239 3.21694 14.1719 3.20158C13.6198 3.18623 13.0705 3.28359 12.5573 3.48773C12.0442 3.69186 11.578 3.99848 11.1874 4.38884L9.99986 5.58415L8.97643 4.5529C7.41393 2.99822 4.85924 2.77165 3.22643 4.2404C2.81495 4.60875 2.4829 5.05713 2.25055 5.55814C2.01821 6.05915 1.89046 6.60227 1.87511 7.15432C1.85975 7.70637 1.95711 8.25575 2.16125 8.7689C2.36538 9.28205 2.672 9.74819 3.06236 10.1388L9.55455 16.631C9.67305 16.7484 9.83308 16.8142 9.99986 16.8142C10.1666 16.8142 10.3267 16.7484 10.4452 16.631V16.631Z" stroke="black" stroke-width="1.5" stroke-linecap="round" stroke-linejoin="round"/>
</svg>
