<svg width="24" height="24" viewBox="0 0 24 24" fill="none" xmlns="http://www.w3.org/2000/svg">
<g id="ic24/home">
<path id="Vector" d="M14.1818 19.2494V14.7461C14.1818 14.547 14.1052 14.3561 13.9688 14.2153C13.8324 14.0746 13.6474 13.9955 13.4545 13.9955H10.5455C10.3526 13.9955 10.1676 14.0746 10.0312 14.2153C9.89481 14.3561 9.81818 14.547 9.81818 14.7461V19.2494C9.81818 19.4485 9.74156 19.6394 9.60517 19.7802C9.46878 19.9209 9.28379 20 9.09091 20H4.72727C4.53439 20 4.3494 19.9209 4.21301 19.7802C4.07662 19.6394 4 19.4485 4 19.2494V10.5711C4.00163 10.4672 4.02338 10.3647 4.06397 10.2696C4.10457 10.1746 4.16318 10.0888 4.23636 10.0175L11.5091 3.19678C11.6432 3.0702 11.8183 3 12 3C12.1817 3 12.3568 3.0702 12.4909 3.19678L19.7636 10.0175C19.8368 10.0888 19.8954 10.1746 19.936 10.2696C19.9766 10.3647 19.9984 10.4672 20 10.5711V19.2494C20 19.4485 19.9234 19.6394 19.787 19.7802C19.6506 19.9209 19.4656 20 19.2727 20H14.9091C14.7162 20 14.5312 19.9209 14.3948 19.7802C14.2584 19.6394 14.1818 19.4485 14.1818 19.2494Z" stroke="black" stroke-width="1.5" stroke-linecap="round" stroke-linejoin="round"/>
</g>
</svg>
