<svg width="20" height="20" viewBox="0 0 20 20" fill="none" xmlns="http://www.w3.org/2000/svg">
<path d="M10.4453 16.631L16.7734 10.3029C18.3281 8.7404 18.5547 6.18572 17.0859 4.5529C16.7176 4.14143 16.2692 3.80937 15.7682 3.57703C15.2672 3.34469 14.7241 3.21694 14.172 3.20158C13.62 3.18623 13.0706 3.28359 12.5574 3.48773C12.0443 3.69186 11.5781 3.99848 11.1875 4.38884L9.99999 5.58415L8.97655 4.5529C7.41405 2.99822 4.85936 2.77165 3.22655 4.2404C2.81507 4.60875 2.48302 5.05713 2.25068 5.55814C2.01833 6.05915 1.89058 6.60227 1.87523 7.15432C1.85987 7.70637 1.95724 8.25575 2.16137 8.7689C2.3655 9.28205 2.67212 9.74819 3.06249 10.1388L9.55467 16.631C9.67317 16.7484 9.83321 16.8142 9.99999 16.8142C10.1668 16.8142 10.3268 16.7484 10.4453 16.631V16.631Z" fill="#F9482D" stroke="#F9482D" stroke-width="1.5" stroke-linecap="round" stroke-linejoin="round"/>
</svg>
