<svg width="37" height="18" viewBox="0 0 37 18" fill="none" xmlns="http://www.w3.org/2000/svg">
<rect width="37" height="18" fill="#F0F0F0"/>
<path d="M5.00586 13V4.51562H7.98242C9.76367 4.51562 10.5957 5.51172 10.5957 6.76562C10.5957 7.85547 9.95117 8.34766 9.21289 8.54688V8.62891C9.99805 8.67578 10.9355 9.40234 10.9355 10.75C10.9355 12.0273 10.0918 13 8.08789 13H5.00586ZM8.07617 12.0625C9.40039 12.0625 9.91602 11.4766 9.91602 10.7383C9.91602 9.87109 9.22461 9.14453 8.13477 9.14453H6.06055V12.0625H8.07617ZM7.94727 8.23047C8.86133 8.23047 9.58789 7.66797 9.58789 6.77734C9.58789 6.03906 9.0957 5.45312 7.98242 5.45312H6.06055V8.23047H7.94727ZM12.4355 13V4.51562H17.5801V5.45312H13.4902V8.28906H17.3105V9.21484H13.4902V12.0625H17.6387V13H12.4355ZM23.873 6.64844C23.7793 5.81641 23.0176 5.33594 21.998 5.33594C20.873 5.33594 20.1348 5.92188 20.1348 6.73047C20.1348 7.62109 21.1309 7.94922 21.7754 8.11328L22.6191 8.34766C23.5332 8.58203 25.0215 9.10938 25.0215 10.6914C25.0215 12.0742 23.9082 13.1523 21.9395 13.1523C20.1113 13.1523 18.9746 12.2031 18.8809 10.7969H19.959C20.0527 11.7461 20.9316 12.1914 21.9395 12.1914C23.1113 12.1914 23.9902 11.5938 23.9902 10.668C23.9902 9.84766 23.2051 9.53125 22.3145 9.27344L21.2715 8.99219C19.9355 8.60547 19.1152 7.92578 19.1152 6.77734C19.1152 5.34766 20.3926 4.39844 22.0332 4.39844C23.6738 4.39844 24.8574 5.35938 24.9043 6.64844H23.873ZM26.0645 5.45312V4.51562H32.4629V5.45312H29.8027V13H28.7363V5.45312H26.0645Z" fill="black"/>
</svg>
