<svg width="35" height="19" viewBox="0 0 35 19" fill="none" xmlns="http://www.w3.org/2000/svg">
<rect width="35" height="18" transform="translate(0 0.5)" fill="#F0F0F0"/>
<path d="M11.9746 5.01562V13.5H10.9668L6.37305 6.89062H6.29102V13.5H5.23633V5.01562H6.25586L10.8496 11.6367H10.9316V5.01562H11.9746ZM13.8496 13.5V5.01562H18.9941V5.95312H14.9043V8.78906H18.7246V9.71484H14.9043V12.5625H19.0527V13.5H13.8496ZM22.2285 13.5L19.9082 5.01562H20.9746L22.7441 11.8828H22.8262L24.6191 5.01562H25.8027L27.6074 11.8828H27.6777L29.4473 5.01562H30.5137L28.1934 13.5H27.1035L25.252 6.78516H25.1816L23.3184 13.5H22.2285Z" fill="black"/>
</svg>
