<svg width="50" height="18" viewBox="0 0 50 18" fill="none" xmlns="http://www.w3.org/2000/svg">
<rect width="50" height="18" fill="#F0F0F0"/>
<path d="M14.207 9.58984V10.3516H9.85938V13.9492H8.95703V10.3516H4.66797V9.58984H14.207ZM12.9648 4.11719V8.17188H5.89844V4.11719H12.9648ZM6.80078 4.86719V7.44531H12.0508V4.86719H6.80078ZM24.5898 11.8867V12.6602H15.0508V11.8867H17.7344V9.90625H16.2461V6.69531H22.4805V5.06641H16.2227V4.30469H23.3828V7.45703H17.1602V9.14453H23.6289V9.90625H22V11.8867H24.5898ZM18.6367 11.8867H21.0977V9.90625H18.6367V11.8867ZM26.6875 4.52734V7.07031H28.9492V4.52734H29.8047V11.3477H25.8086V4.52734H26.6875ZM26.6875 10.5859H28.9492V7.82031H26.6875V10.5859ZM34.3516 3.53125V13.9492H33.4609V8.42969H32.0078V13.4219H31.1289V3.75391H32.0078V7.66797H33.4609V3.53125H34.3516ZM40.9844 7.17578V8.71094H45.2852V9.46094H35.793V8.71094H40.082V7.17578H40.9844ZM40.9961 4.1875C40.9961 5.57031 42.8711 6.73047 44.7109 6.98828L44.3359 7.72656C42.7539 7.45117 41.1895 6.61328 40.5391 5.40625C39.8828 6.61914 38.3125 7.45117 36.7188 7.72656L36.3672 6.98828C38.207 6.73047 40.0703 5.57031 40.0703 4.1875V3.69531H40.9961V4.1875ZM40.5391 10.3281C42.7773 10.3281 44.1133 10.9727 44.125 12.1328C44.1133 13.293 42.7773 13.9258 40.5391 13.9258C38.2773 13.9258 36.9414 13.293 36.9414 12.1328C36.9414 10.9727 38.2773 10.3281 40.5391 10.3281ZM40.5391 11.0547C38.8516 11.0547 37.8672 11.4414 37.8789 12.1328C37.8672 12.8125 38.8516 13.2109 40.5391 13.2109C42.2031 13.2109 43.1992 12.8125 43.1992 12.1328C43.1992 11.4414 42.2031 11.0547 40.5391 11.0547Z" fill="black"/>
</svg>
