<svg width="115" height="40" viewBox="0 0 115 40" fill="none" xmlns="http://www.w3.org/2000/svg">
<g clip-path="url(#clip0_7051_202)">
<path d="M112.616 0H11.226C8.24983 0.00376492 5.39664 1.18771 3.29217 3.29217C1.18771 5.39664 0.00376492 8.24983 0 11.226L0 40H103.472C106.448 39.9962 109.301 38.8123 111.405 36.7078C113.51 34.6034 114.694 31.7502 114.698 28.774V0H112.616Z" fill="black"/>
<path d="M11.2268 2.07812H112.616V28.7748C112.619 29.9774 112.384 31.1688 111.926 32.2806C111.468 33.3925 110.795 34.403 109.945 35.2545C109.096 36.106 108.087 36.7817 106.976 37.2429C105.866 37.7041 104.675 37.9419 103.472 37.9425H2.07812V11.2268C2.07813 8.80043 3.042 6.47342 4.75771 4.75771C6.47342 3.042 8.80043 2.07813 11.2268 2.07812Z" fill="white"/>
<path d="M32.1133 29.981C32.1428 28.0188 32.8941 26.1362 34.2238 24.6929C35.5931 23.1514 37.2184 21.8581 39.0282 20.8702C40.1222 20.2747 41.1452 19.5571 42.0777 18.7313C42.5048 18.338 42.8483 17.8629 43.0879 17.3341C43.3275 16.8052 43.4581 16.2336 43.4721 15.6532C43.4729 15.1552 43.3519 14.6644 43.1196 14.2238C42.8873 13.7832 42.5508 13.4061 42.1394 13.1254C41.2686 12.5093 40.2226 12.19 39.1562 12.2148C38.5939 12.204 38.035 12.3045 37.5117 12.5104C36.9883 12.7163 36.5108 13.0236 36.1066 13.4147C35.6907 13.7923 35.3598 14.2539 35.1358 14.769C34.9118 15.2841 34.7997 15.8409 34.8071 16.4026V17.6357H32.6018V16.4026C32.5906 15.5515 32.7579 14.7074 33.0928 13.9249C33.4277 13.1423 33.9228 12.4386 34.5463 11.8591C35.1524 11.2588 35.8726 10.7859 36.6643 10.4682C37.456 10.1506 38.3033 9.99458 39.1562 10.0094C40.8071 9.97393 42.417 10.5251 43.6997 11.565C44.321 12.049 44.8225 12.6695 45.1654 13.3785C45.5084 14.0874 45.6836 14.8657 45.6774 15.6532C45.6563 17.145 45.099 18.5793 44.1076 19.694C43.0841 20.86 41.8641 21.8375 40.5031 22.5823L39.8392 22.9712C36.9366 24.6154 35.3462 26.2168 35.068 27.7756H45.6774V29.981H32.1133Z" fill="black"/>
<path d="M50.5 29.9801V10.2504H58.8756C60.3959 10.2326 61.8629 10.8096 62.9638 11.8582C63.5169 12.3571 63.9566 12.9687 64.2536 13.6518C64.5506 14.3349 64.6978 15.0736 64.6854 15.8183C64.6858 16.6675 64.4581 17.5012 64.0262 18.2324C63.592 18.9469 62.9615 19.5215 62.2097 19.8876C63.102 20.2879 63.8655 20.9283 64.4151 21.7372C64.9849 22.5196 65.2906 23.4632 65.2878 24.4311C65.2977 25.2023 65.1271 25.9651 64.7894 26.6585C64.4518 27.352 63.9565 27.9567 63.3433 28.4245C62.0859 29.4634 60.4968 30.0156 58.8661 29.9801H50.5ZM52.9662 18.7493H58.8756C59.7314 18.7682 60.5634 18.4672 61.209 17.9051C61.5281 17.6524 61.7851 17.3299 61.9602 16.9624C62.1353 16.5949 62.2239 16.1922 62.2192 15.7851C62.2192 14.9046 61.8695 14.0602 61.2469 13.4376C60.6243 12.815 59.7798 12.4652 58.8993 12.4652H52.9662V18.7493ZM52.9662 27.7605H58.8756C59.8777 27.7909 60.8594 27.4743 61.6548 26.8641C62.0315 26.5809 62.3363 26.2132 62.5448 25.7906C62.7532 25.368 62.8594 24.9023 62.8548 24.4311C62.8605 23.9503 62.7552 23.4746 62.5471 23.0411C62.339 22.6076 62.0337 22.2279 61.6548 21.9317C60.8839 21.2854 59.9051 20.94 58.8993 20.9594H52.9662V27.7605Z" fill="black"/>
<path d="M69.7988 29.9797V10.25H83.363V12.5834H72.265V18.6209H82.1299V20.959H72.265V27.6415H83.363V29.9797H69.7988Z" fill="black"/>
<path d="M13.5882 29.8439L13.498 29.9814H16.4765H16.4812L21.6413 22.3552L26.8345 29.9814H29.7845L23.102 20.1166L24.596 17.916V17.9112L29.7845 10.2518H29.775L35.3192 2.04688H32.3645L22.7558 16.2655L21.6413 17.9112L16.4812 10.2518H13.498L20.1473 20.1166L13.5882 29.8439Z" fill="black"/>
<path d="M101.201 12.5834V10.25H87.6367V29.9797H98.2509L92.6166 37.9379L95.5855 37.919L101.201 29.9797V27.6415H90.1029V20.959H99.9678V18.6209H90.1029V12.5834H101.201Z" fill="black"/>
</g>
<defs>
<clipPath id="clip0_7051_202">
<rect width="114.698" height="40" fill="white"/>
</clipPath>
</defs>
</svg>
