<svg width="20" height="20" viewBox="0 0 20 20" fill="none" xmlns="http://www.w3.org/2000/svg">
<path fill-rule="evenodd" clip-rule="evenodd" d="M17.3667 5.82724L15.7779 12.5854H6.6716L5.08865 5.82724H17.3667Z" fill="#F9482D" stroke="#F9482D" stroke-width="1.5" stroke-linecap="square" stroke-linejoin="round"/>
<path d="M14.3527 17.0772C15.043 17.0772 15.6027 16.5176 15.6027 15.8272C15.6027 15.1369 15.043 14.5772 14.3527 14.5772C13.6623 14.5772 13.1027 15.1369 13.1027 15.8272C13.1027 16.5176 13.6623 17.0772 14.3527 17.0772Z" fill="#F9482D" stroke="#F9482D" stroke-width="1.5" stroke-linecap="square" stroke-linejoin="round"/>
<path d="M8.09683 17.0772C8.78718 17.0772 9.34683 16.5176 9.34683 15.8272C9.34683 15.1369 8.78718 14.5772 8.09683 14.5772C7.40647 14.5772 6.84682 15.1369 6.84682 15.8272C6.84682 16.5176 7.40647 17.0772 8.09683 17.0772Z" fill="#F9482D" stroke="#F9482D" stroke-width="1.5" stroke-linecap="square" stroke-linejoin="round"/>
<path d="M2.36669 3.68936H4.58632L5.61436 8.07017" stroke="#F9482D" stroke-width="1.5" stroke-linecap="round" stroke-linejoin="round"/>
</svg>
