<svg width="24" height="24" viewBox="0 0 24 24" fill="none" xmlns="http://www.w3.org/2000/svg">
<g id="ic24/user">
<g id="Vector">
<mask id="path-1-inside-1_2601_768" fill="white">
<path fill-rule="evenodd" clip-rule="evenodd" d="M4 20C4 18.8267 4.22839 17.7678 4.63922 16.8798C5.04666 15.9954 5.64962 15.2657 6.38051 14.7727C7.115 14.2756 7.98868 14 8.95899 14H15.0417C16.0113 14 16.8857 14.2756 17.6202 14.7727C18.3511 15.2657 18.954 15.9954 19.3615 16.8798C19.7723 17.7686 20 18.8258 20 20"/>
</mask>
<path fill-rule="evenodd" clip-rule="evenodd" d="M4 20C4 18.8267 4.22839 17.7678 4.63922 16.8798C5.04666 15.9954 5.64962 15.2657 6.38051 14.7727C7.115 14.2756 7.98868 14 8.95899 14H15.0417C16.0113 14 16.8857 14.2756 17.6202 14.7727C18.3511 15.2657 18.954 15.9954 19.3615 16.8798C19.7723 17.7686 20 18.8258 20 20" fill="black"/>
<path d="M2.5 20V21.5H5.5V20H2.5ZM4.63922 16.8798L6.00058 17.5096L6.0016 17.5074L4.63922 16.8798ZM6.38051 14.7727L7.21936 16.0162L7.22129 16.0149L6.38051 14.7727ZM17.6202 14.7727L16.7794 16.0149L16.7813 16.0162L17.6202 14.7727ZM19.3615 16.8798L17.9991 17.5074L17.9999 17.5092L19.3615 16.8798ZM18.5 20V21.5H21.5V20H18.5ZM5.5 20C5.5 19.019 5.69109 18.1786 6.00058 17.5096L3.27786 16.25C2.76569 17.357 2.5 18.6343 2.5 20H5.5ZM6.0016 17.5074C6.30655 16.8455 6.73938 16.34 7.21936 16.0162L5.54165 13.5292C4.55986 14.1915 3.78677 15.1453 3.27683 16.2522L6.0016 17.5074ZM7.22129 16.0149C7.7029 15.6889 8.28271 15.5 8.95899 15.5V12.5C7.69465 12.5 6.5271 12.8622 5.53972 13.5305L7.22129 16.0149ZM8.95899 15.5H15.0417V12.5H8.95899V15.5ZM15.0417 15.5C15.7174 15.5 16.2979 15.689 16.7794 16.0149L18.461 13.5305C17.4735 12.8621 16.3052 12.5 15.0417 12.5V15.5ZM16.7813 16.0162C17.2613 16.34 17.6941 16.8455 17.9991 17.5074L20.7238 16.2522C20.2139 15.1453 19.4408 14.1915 18.459 13.5292L16.7813 16.0162ZM17.9999 17.5092C18.3095 18.1789 18.5 19.0179 18.5 20H21.5C21.5 18.6338 21.2351 17.3583 20.723 16.2504L17.9999 17.5092Z" fill="black" mask="url(#path-1-inside-1_2601_768)"/>
</g>
<path id="Vector_2" fill-rule="evenodd" clip-rule="evenodd" d="M16 8C16 6.93913 15.5786 5.92172 14.8284 5.17157C14.0783 4.42143 13.0609 4 12 4C10.9391 4 9.92172 4.42143 9.17157 5.17157C8.42143 5.92172 8 6.93913 8 8C8 9.06087 8.42143 10.0783 9.17157 10.8284C9.92172 11.5786 10.9391 12 12 12C13.0609 12 14.0783 11.5786 14.8284 10.8284C15.5786 10.0783 16 9.06087 16 8Z" fill="black"/>
</g>
</svg>
