<svg width="60" height="60" viewBox="0 0 60 60" fill="none" xmlns="http://www.w3.org/2000/svg">
<rect width="60" height="60" rx="30" fill="#FEE500"/>
<path d="M29.9914 19C23.3533 19 18 23.2826 18 28.4818C18 31.8565 20.227 34.8115 23.5675 36.4989L22.4368 40.7216C22.4155 40.7849 22.4122 40.8528 22.4274 40.9179C22.4425 40.9829 22.4754 41.0425 22.5225 41.0899C22.5911 41.1504 22.6794 41.1839 22.7709 41.1841C22.8467 41.178 22.9187 41.148 22.9764 41.0984L27.8415 37.818C28.5597 37.9171 29.2836 37.9685 30.0086 37.9721C36.6381 37.9721 42 33.6895 42 28.4818C42 23.274 36.621 19 29.9914 19Z" fill="black"/>
</svg>
