<svg width="60" height="60" viewBox="0 0 60 60" fill="none" xmlns="http://www.w3.org/2000/svg">
<rect width="60" height="60" rx="30" fill="#999999"/>
<path d="M28.9313 19.3876L32.6438 15.6751C34.2157 14.2425 36.2791 13.4706 38.4052 13.5198C40.5314 13.569 42.5569 14.4356 44.0608 15.9394C45.5646 17.4433 46.4312 19.4688 46.4804 21.595C46.5296 23.7211 45.7577 25.7845 44.3251 27.3564L39.0188 32.6439C38.2541 33.4115 37.3453 34.0205 36.3446 34.4361C35.344 34.8517 34.2711 35.0657 33.1876 35.0657C32.104 35.0657 31.0312 34.8517 30.0305 34.4361C29.0298 34.0205 28.1211 33.4115 27.3563 32.6439" stroke="white" stroke-width="2" stroke-linecap="round" stroke-linejoin="round"/>
<path d="M31.0689 40.6126L27.3564 44.3251C25.7845 45.7577 23.7211 46.5296 21.595 46.4804C19.4688 46.4312 17.4433 45.5646 15.9394 44.0608C14.4356 42.5569 13.569 40.5315 13.5198 38.4053C13.4706 36.2791 14.2425 34.2157 15.6751 32.6438L20.9814 27.3563C21.7461 26.5887 22.6549 25.9797 23.6556 25.5641C24.6562 25.1485 25.7291 24.9346 26.8126 24.9346C27.8962 24.9346 28.969 25.1485 29.9697 25.5641C30.9704 25.9797 31.8791 26.5887 32.6439 27.3563" stroke="white" stroke-width="2" stroke-linecap="round" stroke-linejoin="round"/>
</svg>
