<svg width="60" height="60" viewBox="0 0 60 60" fill="none" xmlns="http://www.w3.org/2000/svg">
<rect width="60" height="60" rx="30" fill="black"/>
<g clip-path="url(#clip0_3291_23163)">
<path d="M42.8456 41.9394L32.7928 27.6686L31.6568 26.0546L24.466 15.8457L23.8704 15H15.0344L17.1896 18.0606L26.7501 31.6351L27.8893 33.2475L35.5748 44.1551L36.1712 45H45L42.8456 41.9394ZM37.2144 43.0473L29.2334 31.7149L28.0974 30.0994L18.8364 16.9559H22.82L30.3094 27.5896L31.4462 29.2028L41.1981 43.0504L37.2144 43.0473Z" fill="white"/>
<path d="M28.0974 30.1017L29.2334 31.7149L27.8869 33.2475L17.549 45H15L26.7501 31.6351L28.0974 30.1017Z" fill="white"/>
<path d="M43.9361 15L32.7928 27.6686L31.4463 29.2004L30.3094 27.5872L31.6568 26.0546L39.2055 17.4691L41.387 15H43.9361Z" fill="white"/>
</g>
<defs>
<clipPath id="clip0_3291_23163">
<rect width="30" height="30" fill="white" transform="translate(15 15)"/>
</clipPath>
</defs>
</svg>
