<svg xmlns="http://www.w3.org/2000/svg" width="20" height="20" viewBox="0 0 20 20" fill="none">
<rect x="5" y="7" width="10" height="3" fill="#F9482D"/>
<path d="M18 13.152C17.5351 13.152 17.0702 13.2862 16.6667 13.5556C16.2718 13.8188 15.8079 13.9593 15.3333 13.9593C14.8588 13.9593 14.3948 13.8188 14 13.5556C13.6052 13.2923 13.1412 13.1518 12.6667 13.1518C12.1921 13.1518 11.7282 13.2923 11.3333 13.5556C10.9385 13.8188 10.4746 13.9593 10 13.9593C9.52545 13.9593 9.06151 13.8188 8.66667 13.5556C8.27182 13.2923 7.80789 13.1518 7.33333 13.1518C6.85878 13.1518 6.39484 13.2923 6 13.5556C5.60516 13.8188 5.14122 13.9593 4.66667 13.9593C4.19211 13.9593 3.72818 13.8188 3.33333 13.5556C2.93854 13.2922 2.47456 13.1518 2 13.152M7.33333 4.66667V6.44444M10 4.66667V6.44444M12.6667 4.66667V6.44444M7.33333 2H7.34222M10 2H10.0089M12.6667 2H12.6756M18 18V11.7778C18 11.3063 17.8127 10.8541 17.4793 10.5207C17.1459 10.1873 16.6937 10 16.2222 10H3.77778C3.30628 10 2.8541 10.1873 2.5207 10.5207C2.1873 10.8541 2 11.3063 2 11.7778V18H18ZM15.3333 10V8.22222C15.3333 7.75073 15.146 7.29854 14.8126 6.96514C14.4792 6.63175 14.0271 6.44444 13.5556 6.44444H6.44444C5.97295 6.44444 5.52076 6.63175 5.18737 6.96514C4.85397 7.29854 4.66667 7.75073 4.66667 8.22222V10H15.3333Z" stroke="black" stroke-width="1.5" stroke-linecap="round" stroke-linejoin="round"/>
</svg>