<svg width="12" height="12" viewBox="0 0 12 12" fill="none" xmlns="http://www.w3.org/2000/svg">
<path d="M7.09091 9.60264V7.2185C7.09091 7.11312 7.0526 7.01205 6.9844 6.93753C6.91621 6.86301 6.82372 6.82115 6.72727 6.82115H5.27273C5.17629 6.82115 5.08379 6.86301 5.0156 6.93753C4.9474 7.01205 4.90909 7.11312 4.90909 7.2185V9.60264C4.90909 9.70803 4.87078 9.8091 4.80258 9.88362C4.73439 9.95814 4.6419 10 4.54545 10H2.36364C2.26719 10 2.1747 9.95814 2.10651 9.88362C2.03831 9.8091 2 9.70803 2 9.60264V5.00821C2.00081 4.95322 2.01169 4.89896 2.03199 4.84863C2.05228 4.7983 2.08159 4.75292 2.11818 4.71516L5.75455 1.10418C5.82158 1.03717 5.90914 1 6 1C6.09086 1 6.17842 1.03717 6.24545 1.10418L9.88182 4.71516C9.91841 4.75292 9.94772 4.7983 9.96801 4.84863C9.98831 4.89896 9.99919 4.95322 10 5.00821V9.60264C10 9.70803 9.96169 9.8091 9.89349 9.88362C9.8253 9.95814 9.73281 10 9.63636 10H7.45455C7.3581 10 7.26561 9.95814 7.19742 9.88362C7.12922 9.8091 7.09091 9.70803 7.09091 9.60264Z" stroke="#767676" stroke-linecap="round" stroke-linejoin="round"/>
</svg>
