<svg width="16" height="16" viewBox="0 0 16 16" fill="none" xmlns="http://www.w3.org/2000/svg">
<path d="M14.2079 7.0947C14.1594 6.84793 14.0554 6.61541 13.9039 6.4147C13.7508 6.21672 13.5553 6.05546 13.3319 5.9427C13.1047 5.83353 12.856 5.77615 12.6039 5.7747H9.5559C9.54152 5.77881 9.52628 5.77881 9.5119 5.7747C9.49687 5.7701 9.48406 5.76013 9.4759 5.7467C9.47268 5.73356 9.47268 5.71984 9.4759 5.7067C9.47184 5.69096 9.47184 5.67444 9.4759 5.6587L10.1599 3.3867C10.2566 3.06222 10.231 2.71356 10.0879 2.4067C9.94802 2.09845 9.69852 1.85323 9.3879 1.7187C9.07861 1.58273 8.73067 1.56284 8.4079 1.6627C8.08588 1.76629 7.81277 1.98393 7.6399 2.2747L5.8239 6.6347C5.73257 6.78093 5.60605 6.90195 5.4559 6.9867C5.30071 7.07357 5.12576 7.11903 4.9479 7.1187H3.0999C3.00824 7.11926 2.91759 7.13792 2.83315 7.17362C2.74872 7.20931 2.67217 7.26134 2.6079 7.3267C2.54254 7.39097 2.49052 7.46752 2.45482 7.55195C2.41913 7.63638 2.40046 7.72703 2.3999 7.8187V13.0187C2.40016 13.111 2.41867 13.2023 2.45436 13.2875C2.49006 13.3726 2.54224 13.4498 2.6079 13.5147C2.67237 13.5795 2.74904 13.6309 2.83349 13.6659C2.91794 13.7009 3.00848 13.7189 3.0999 13.7187H11.3479C11.7066 13.7193 12.0554 13.6012 12.3399 13.3827C12.625 13.1657 12.8303 12.8605 12.9239 12.5147L14.1999 7.8507C14.2603 7.60261 14.263 7.344 14.2079 7.0947ZM3.0079 13.0947C2.99797 13.0855 2.99001 13.0744 2.98451 13.062C2.97901 13.0496 2.97608 13.0362 2.9759 13.0227V7.8227C2.97615 7.80975 2.97913 7.797 2.98464 7.78528C2.99016 7.77356 2.99808 7.76314 3.0079 7.7547C3.01635 7.74488 3.02677 7.73695 3.03849 7.73144C3.0502 7.72592 3.06295 7.72294 3.0759 7.7227H4.7119V13.1227H3.0759C3.0633 13.1202 3.05139 13.115 3.04102 13.1074C3.03066 13.0997 3.02208 13.09 3.0159 13.0787L3.0079 13.0947ZM13.6039 7.6747L12.3279 12.3427C12.2699 12.5614 12.1404 12.7543 11.9599 12.8907C11.7792 13.0277 11.5587 13.1021 11.3319 13.1027H5.3319V7.6747C5.47204 7.63838 5.6066 7.58321 5.7319 7.5107C5.97754 7.37237 6.18294 7.17248 6.3279 6.9307L8.1439 2.5707C8.24362 2.41363 8.39497 2.29623 8.5719 2.2387C8.75509 2.18243 8.95238 2.19378 9.1279 2.2707C9.30704 2.34862 9.44998 2.49156 9.5279 2.6707C9.60746 2.84524 9.62166 3.04256 9.5679 3.2267L8.8879 5.4987C8.85502 5.60347 8.84815 5.71468 8.8679 5.8227C8.88795 5.92845 8.93171 6.02829 8.9959 6.1147C9.05949 6.20249 9.14315 6.2738 9.2399 6.3227C9.33754 6.3732 9.44597 6.39928 9.5559 6.3987H12.6039C12.7597 6.38851 12.9158 6.41452 13.0599 6.4747C13.2039 6.54357 13.3288 6.64655 13.4239 6.7747C13.5197 6.90088 13.5853 7.04727 13.6159 7.2027C13.6486 7.35883 13.6445 7.52043 13.6039 7.6747Z" fill="#DB3939"/>
</svg>
