<svg xmlns="http://www.w3.org/2000/svg" width="16" height="16" viewBox="0 0 16 16" fill="none">
<circle cx="8" cy="8" r="6.5" stroke="#CCCCCC"/>
<path d="M8.35717 11.1428C8.35717 11.34 8.19727 11.4999 8.00003 11.4999C7.80278 11.4999 7.64288 11.34 7.64288 11.1428C7.64288 10.9455 7.80278 10.7856 8.00003 10.7856C8.19727 10.7856 8.35717 10.9455 8.35717 11.1428Z" fill="black" stroke="black"/>
<path d="M8 9V8C8.39556 8 8.78224 7.8827 9.11114 7.66294C9.44004 7.44318 9.69638 7.13082 9.84776 6.76537C9.99913 6.39992 10.0387 5.99778 9.96157 5.60982C9.8844 5.22186 9.69392 4.86549 9.41421 4.58579C9.13451 4.30608 8.77814 4.1156 8.39018 4.03843C8.00222 3.96126 7.60009 4.00087 7.23463 4.15224C6.86918 4.30362 6.55682 4.55996 6.33706 4.88886C6.1173 5.21776 6 5.60444 6 6" stroke="black" stroke-linecap="round" stroke-linejoin="round"/>
</svg>