<svg xmlns="http://www.w3.org/2000/svg" width="48" height="48" viewBox="0 0 48 48" fill="none">
<path fill-rule="evenodd" clip-rule="evenodd" d="M41.6802 13.9854L37.8671 30.2049H16.012L12.2129 13.9854H41.6802Z" stroke="#999999" stroke-width="2" stroke-linecap="square" stroke-linejoin="round"/>
<path d="M34.4463 40.9853C36.1031 40.9853 37.4463 39.6422 37.4463 37.9853C37.4463 36.3285 36.1031 34.9854 34.4463 34.9854C32.7894 34.9854 31.4463 36.3285 31.4463 37.9853C31.4463 39.6422 32.7894 40.9853 34.4463 40.9853Z" stroke="#999999" stroke-width="2" stroke-linecap="square" stroke-linejoin="round"/>
<path d="M19.4324 40.9853C21.0892 40.9853 22.4324 39.6422 22.4324 37.9853C22.4324 36.3285 21.0892 34.9854 19.4324 34.9854C17.7755 34.9854 16.4324 36.3285 16.4324 37.9853C16.4324 39.6422 17.7755 40.9853 19.4324 40.9853Z" stroke="#999999" stroke-width="2" stroke-linecap="square" stroke-linejoin="round"/>
<path d="M5.67993 8.85449H11.007L13.4743 19.3684" stroke="#999999" stroke-width="2" stroke-linecap="round" stroke-linejoin="round"/>
</svg>