<svg width="16" height="16" viewBox="0 0 16 16" fill="none" xmlns="http://www.w3.org/2000/svg">
<path fill-rule="evenodd" clip-rule="evenodd" d="M10 4.5C10 3.39543 9.10457 2.5 8 2.5C6.89543 2.5 6 3.39543 6 4.5V5.5H10V4.5ZM11 4.5V5.5C12.1046 5.5 13 6.39543 13 7.5V12.5C13 13.6046 12.1046 14.5 11 14.5H5C3.89543 14.5 3 13.6046 3 12.5V7.5C3 6.39543 3.89543 5.5 5 5.5V4.5C5 2.84315 6.34315 1.5 8 1.5C9.65685 1.5 11 2.84315 11 4.5ZM6.5 10C6.22386 10 6 10.2239 6 10.5C6 10.7761 6.22386 11 6.5 11H9.5C9.77614 11 10 10.7761 10 10.5C10 10.2239 9.77614 10 9.5 10H6.5Z" fill="#999999"/>
</svg>
