<svg width="24" height="24" viewBox="0 0 24 24" fill="none" xmlns="http://www.w3.org/2000/svg">
<g id="ic24/search">
<path id="Vector" d="M10.5 17C14.0899 17 17 14.0899 17 10.5C17 6.91015 14.0899 4 10.5 4C6.91015 4 4 6.91015 4 10.5C4 14.0899 6.91015 17 10.5 17Z" stroke="black" stroke-width="1.5" stroke-linecap="round" stroke-linejoin="round"/>
<path id="Vector_2" d="M16.5303 15.4697L16 14.9393L14.9393 16L15.4697 16.5303L16.5303 15.4697ZM20.4697 21.5303C20.7626 21.8232 21.2374 21.8232 21.5303 21.5303C21.8232 21.2374 21.8232 20.7626 21.5303 20.4697L20.4697 21.5303ZM15.4697 16.5303L20.4697 21.5303L21.5303 20.4697L16.5303 15.4697L15.4697 16.5303Z" fill="black"/>
</g>
</svg>
